{"title":"[ShepardTDS] Cat Planet Cuties Dual Audio Uncensored [720p 8-bit","uid":12971111,"size":2366590197,"categoryP":"video","categoryS":"tv_shows","magnet":"?xt=urn:btih:5392fb8f8c2609d474de99d04a8b1c2be6fdb7e5&amp;dn=%5BShepardTDS%5D+Cat+Planet+Cuties+Dual+Audio+Uncensored+%5B720p+8-bit&amp;tr=udp%3A%2F%2Ftracker.leechers-paradise.org%3A6969&amp;tr=udp%3A%2F%2Fzer0day.ch%3A1337&amp;tr=udp%3A%2F%2Fopen.demonii.com%3A1337&amp;tr=udp%3A%2F%2Ftracker.coppersurfer.tk%3A6969&amp;tr=udp%3A%2F%2Fexodus.desync.com%3A6969","seeders":0,"leechers":1,"uploader":"ShepardTDS","files":18,"time":1449948272,"description":"http://extraimago.com/images/2015/12/12/2838faf0b07cb61dca1cd6a792bbf705.jpg\r\n\r\nConstant Quality encoding.\r\nVariable Bit rates\r\nED and OP included\r\nBlu-Ray Source\r\n \nhttp://extraimago.com/images/2015/12/12/sample1.jpg\r\n \nhttp://extraimago.com/images/2015/12/12/sample2.jpg\r\n\r\nGeneral\r\n\r\nFormat : Matroska\r\nFile size : 151 MiB-211 MiB\r\nDuration : 23mn 48s\r\nOverall bit rate : 884 Kbps-1,188 Kbps\r\nEncoded date : UTC 2015-12-03 15:00:01\r\nWriting application : mkvmerge v7.7.0 ('Six Voices') 32bit built on Feb 28 2015 23:23:00\r\nWriting library : libebml v1.3.1 + libmatroska v1.4.2\r\n\r\nVideo\r\nID : 1\r\nFormat : V_MPEGH/ISO/HEVC\r\nCodec ID : V_MPEGH/ISO/HEVC\r\nDuration : 23mn 48s\r\nBit rate : 482 Kbps-780 Kbps\r\nWidth : 1 280 pixels\r\nHeight : 720 pixels\r\nDisplay aspect ratio : 16:9\r\nFrame rate : 23.976 fps\r\nBits/(Pixel*Frame) : 0.022\r\nStream size : 82.2 MiB (55%)\r\n\r\nAudio #1\r\nID : 2\r\nFormat : AC-3\r\nFormat/Info : Audio Coding 3\r\nMode extension : CM (complete main)\r\nCodec ID : A_AC3\r\nDuration : 23mn 48s\r\nBit rate mode : Constant\r\nBit rate : 192 Kbps\r\nChannel(s) : 6 channels\r\nChannel positions : Front: L C R, Side: L R, LFE\r\nSampling rate : 48.0 KHz\r\nBit depth : 16 bits\r\nCompression mode : Lossy\r\nStream size : 32.7 MiB (22%)\r\nLanguage : English\r\n\r\nAudio #2\r\nID : 3\r\nFormat : AC-3\r\nFormat/Info : Audio Coding 3\r\nMode extension : CM (complete main)\r\nCodec ID : A_AC3\r\nDuration : 23mn 48s\r\nBit rate mode : Constant\r\nBit rate : 192 Kbps\r\nChannel(s) : 2 channels\r\nChannel positions : Front: L R\r\nSampling rate : 48.0 KHz\r\nBit depth : 16 bits\r\nCompression mode : Lossy\r\nStream size : 32.7 MiB (22%)\r\nLanguage : Japanese\r\n\r\nText #1\r\nID : 4\r\nFormat : ASS\r\nCodec ID : S_TEXT/ASS\r\nCodec ID/Info : Advanced Sub Station Alpha\r\nCompression mode : Lossless\r\nTitle : Signs/Songs\r\nLanguage : English\r\n\r\nText #2\r\nID : 5\r\nFormat : ASS\r\nCodec ID : S_TEXT/ASS\r\nCodec ID/Info : Advanced Sub Station Alpha\r\nCompression mode : Lossless\r\nTitle : Dialogue\r\nLanguage : Japanese\r\n\r\nMenu\r\n00:00:00.000 : en:Intro\r\n00:00:35.035 : en:Opening\r\n00:02:05.125 : en:Part A\r\n00:11:38.698 : en:Part B\r\n00:21:57.316 : en:Ending\r\n00:23:27.406 : en:Preview","torrent":{"xt":"urn:btih:5392fb8f8c2609d474de99d04a8b1c2be6fdb7e5","amp;dn":"%5BShepardTDS%5D+Cat+Planet+Cuties+Dual+Audio+Uncensored+%5B720p+8-bit","amp;tr":["udp%3A%2F%2Ftracker.leechers-paradise.org%3A6969","udp%3A%2F%2Fzer0day.ch%3A1337","udp%3A%2F%2Fopen.demonii.com%3A1337","udp%3A%2F%2Ftracker.coppersurfer.tk%3A6969","udp%3A%2F%2Fexodus.desync.com%3A6969"],"infoHash":"5392fb8f8c2609d474de99d04a8b1c2be6fdb7e5","infoHashBuffer":{"type":"Buffer","data":[83,146,251,143,140,38,9,212,116,222,153,208,74,139,28,43,230,253,183,229]},"announce":[],"urlList":[]}}